<?xml version="1.0" encoding="utf-8"?>
<!-- Generator: Adobe Illustrator 16.0.0, SVG Export Plug-In . SVG Version: 6.00 Build 0)  -->
<!DOCTYPE svg PUBLIC "-//W3C//DTD SVG 1.1//EN" "http://www.w3.org/Graphics/SVG/1.1/DTD/svg11.dtd">
<svg version="1.1" id="Capa_1" xmlns="http://www.w3.org/2000/svg" xmlns:xlink="http://www.w3.org/1999/xlink" x="0px" y="0px"
	 width="225px" height="59px" viewBox="15 0 225 59" enable-background="new 15 0 225 59" xml:space="preserve">
<g>
	<g>
		<g>
			
				<path fill="#FAFAF9" stroke="#FAFAF9" stroke-width="6.1381" stroke-linecap="round" stroke-linejoin="round" stroke-miterlimit="10" d="
				M182.326,12.111c0.041,0,0.077,0,0.107,0c2.122,0.264,3.213,1.127,3.779,2.477c1.427,3.423-1.632,6.266-4.857,5.569
				C177.099,19.243,176.942,12.1,182.326,12.111z"/>
			
				<path fill="#FAFAF9" stroke="#FAFAF9" stroke-width="6.1381" stroke-linecap="round" stroke-linejoin="round" stroke-miterlimit="10" d="
				M22.64,13.343c12.552-0.354,21.83-0.35,26.216,7.234c3.876,6.686,1.471,15.428-3.125,19.193c-5.022,4.117-13.986,3.73-23.2,3.615
				c-0.249-9.705-0.032-19.852-0.109-29.728C22.421,13.479,22.503,13.393,22.64,13.343z M30.947,20.369
				c0.073,5.398-0.145,11.075,0.109,16.312c4.403-0.027,8.147-0.478,9.926-3.417c1.961-3.244,1.349-9.164-1.298-11.347
				c-2.04-1.691-4.781-1.895-8.627-1.858C30.931,20.076,30.94,20.22,30.947,20.369z"/>
			
				<path fill="#FAFAF9" stroke="#FAFAF9" stroke-width="6.1381" stroke-linecap="round" stroke-linejoin="round" stroke-miterlimit="10" d="
				M102.266,43.384c-2.554,0-5.105,0-7.662,0c-0.011-4.432-0.011-8.413,0-11.974c0.005-1.365-0.473-2.686-1.296-3.301
				c-1.492-1.144-3.91-0.668-5.068,0.309c-0.964,0.812-1.486,2.161-1.743,3.766c0.035,5.806,0.035,6.465,0.021,11.2
				c-2.518,0-5.037,0-7.559,0c0-6.918,0-13.83,0-20.744c2.343,0,4.68,0,7.016,0c0,1.339,0,2.683,0,4.024
				c1.505-2.053,3.428-4.32,6.905-4.646c3.797-0.355,6.817,0.81,8.198,2.887c1.404,2.115,1.188,5.379,1.188,8.676
				C102.266,36.817,102.266,40.253,102.266,43.384z"/>
			
				<path fill="#FAFAF9" stroke="#FAFAF9" stroke-width="6.1381" stroke-linecap="round" stroke-linejoin="round" stroke-miterlimit="10" d="
				M123.843,25.938c0-1.103,0-2.204,0-3.298c2.344,0,4.681,0,7.019,0c0,6.915,0,13.827,0,20.744c-2.337,0-4.675,0-7.019,0
				c0-1.07,0-2.133,0-3.197c-1.558,2.254-4.682,4.306-9.059,3.92c-5.947-0.527-8.54-6.475-8.199-12.28
				c0.282-4.903,3.301-9.326,8.519-9.809C119.812,21.579,122.049,23.407,123.843,25.938z M116.188,28.418
				c-1.741,1.059-3.026,4.634-1.517,7.434c1.409,2.601,5.32,3.137,7.663,1.438c3.21-2.317,1.836-7.836-0.644-9.077
				c-0.72-0.358-2.179-0.534-3.241-0.413C117.442,27.913,116.786,28.048,116.188,28.418z"/>
			
				<path fill="#FAFAF9" stroke="#FAFAF9" stroke-width="6.1381" stroke-linecap="round" stroke-linejoin="round" stroke-miterlimit="10" d="
				M158.159,25.836c1.885-4.222,10.614-5.417,13.595-1.028c1.518,2.229,1.252,5.939,1.134,10.075
				c-0.033,2.976-0.033,4.234-0.054,8.5c-3.584,0.029-5.225,0.029-7.532,0.029c0-5.064,0.104-9.073-0.023-12.934
				c-0.022-0.764-0.254-1.757-0.644-2.27c-0.896-1.175-3.297-1.253-4.645-0.313c-1.599,1.123-1.619,4.264-1.619,7.023
				c0,2.968,0,5.741,0,8.464c-2.444,0-4.89,0-7.335,0c0-2.3,0-5.105,0-7.849c0-2.769,0.182-5.844-0.645-7.118
				c-0.919-1.42-3.63-1.553-4.967-0.308c-0.938,0.869-1.328,2.368-1.457,4.14c-0.01,3.494-0.075,6.518-0.01,11.164
				c-2.448,0-4.778,0-7.269-0.029c0-6.918,0-13.83,0-20.744c2.477,0,4.957,0,7.442,0c0,1.13,0,2.264,0,3.399
				c1.235-1.477,3.042-3.715,6.041-4.021C154.182,21.612,157.087,22.956,158.159,25.836z"/>
			
				<path fill="#FAFAF9" stroke="#FAFAF9" stroke-width="6.1381" stroke-linecap="round" stroke-linejoin="round" stroke-miterlimit="10" d="
				M207.579,23.259c0,1.956,0,3.917,0,5.883c-0.713,0.104-1.179-0.706-1.944-1.033c-4.965-2.173-8.835,2.858-6.907,7.327
				c0.699,1.621,2.526,2.761,4.533,2.787c2.004,0.021,3.073-0.945,4.318-1.648c0,2.064,0,4.126,0,6.191
				c-1.654,0.661-2.646,1.198-4.318,1.342c-7.667,0.64-12.509-4.21-12.521-11.046c-0.011-5.874,3.752-10.56,9.82-11.042
				C203.487,21.783,205.736,22.254,207.579,23.259z"/>
			
				<path fill="#FAFAF9" stroke="#FAFAF9" stroke-width="6.1381" stroke-linecap="round" stroke-linejoin="round" stroke-miterlimit="10" d="
				M228.727,23.876c-0.447,1.705-1.062,3.252-1.515,4.954c-1.646-0.739-3.932-2.347-7.013-1.96c-0.919,0.109-1.791,0.529-1.832,1.34
				c-0.093,1.802,2.941,1.984,4.322,2.376c2.938,0.824,6.221,2.226,6.682,5.156c1.546,9.774-13.308,9.954-19.097,5.884
				c0.464-1.826,0.993-3.596,1.509-5.368c0.528-0.1,1.131,0.74,1.837,1.139c1.63,0.918,4.226,1.822,6.693,1.547
				c1.106-0.132,2.147-0.622,2.15-1.656c0.019-1.932-3.424-2.247-4.962-2.676c-2.988-0.854-5.78-2.009-6.146-5.168
				C210.386,21.171,222.568,20.598,228.727,23.876z"/>
			
				<path fill="#FAFAF9" stroke="#FAFAF9" stroke-width="6.1381" stroke-linecap="round" stroke-linejoin="round" stroke-miterlimit="10" d="
				M60.294,22.64c1.311,3.59,2.988,6.988,3.996,10.526c1.017-3.538,2.774-7.272,4.094-10.526c1.9-0.019,5.497,0.009,8.095,0
				c-4.296,9.727-9.021,19.903-13.594,29.929c-2.392-0.011-5.672,0.003-8.415,0c2.019-4.469,4.036-8.257,6.038-12.383
				c-2.94-5.949-5.962-11.76-8.629-17.546C54.303,22.625,57.533,22.647,60.294,22.64z"/>
			
				<path fill="#FAFAF9" stroke="#FAFAF9" stroke-width="6.1381" stroke-linecap="round" stroke-linejoin="round" stroke-miterlimit="10" d="
				M178.66,22.64c2.519,0,4.94-0.007,7.458-0.007c0,6.59,0,13.252-0.013,20.752c-2.52,0-5.034,0-7.558,0c0-6.812,0-13.626,0-20.438
				C178.546,22.801,178.532,22.656,178.66,22.64z"/>
			<g>
				<g>
					
						<path fill="#FAFAF9" stroke="#FAFAF9" stroke-width="6.1381" stroke-linecap="round" stroke-linejoin="round" stroke-miterlimit="3.8637" d="
						M229.572,21.625c0-1.265,1.072-2.293,2.403-2.293c1.323,0,2.401,1.028,2.401,2.293c0,1.271-1.078,2.305-2.401,2.305
						C230.645,23.93,229.572,22.897,229.572,21.625z"/>
					
						<path fill="#FAFAF9" stroke="#FAFAF9" stroke-width="6.1381" stroke-linecap="round" stroke-linejoin="round" stroke-miterlimit="3.8637" d="
						M231.978,21.625"/>
				</g>
				
					<path fill="#FAFAF9" stroke="#FAFAF9" stroke-width="6.1381" stroke-linecap="round" stroke-linejoin="round" stroke-miterlimit="10" d="
					M230.806,22.93v-2.68h1.191c0.302,0,0.517,0.025,0.655,0.07c0.139,0.049,0.248,0.131,0.331,0.261
					c0.076,0.12,0.113,0.264,0.113,0.422c0,0.199-0.058,0.365-0.18,0.497c-0.126,0.131-0.306,0.216-0.553,0.247
					c0.12,0.069,0.221,0.143,0.302,0.225c0.082,0.082,0.188,0.229,0.321,0.437l0.343,0.521h-0.677l-0.409-0.585
					c-0.146-0.209-0.246-0.341-0.298-0.394c-0.053-0.053-0.111-0.087-0.177-0.108c-0.056-0.021-0.15-0.034-0.28-0.034h-0.109v1.121
					H230.806L230.806,22.93z M231.378,21.383h0.418c0.271,0,0.441-0.01,0.502-0.033c0.072-0.019,0.123-0.056,0.162-0.111
					c0.041-0.057,0.055-0.119,0.055-0.204c0-0.093-0.025-0.164-0.071-0.215c-0.055-0.062-0.122-0.092-0.211-0.11
					c-0.049-0.002-0.187-0.009-0.419-0.009h-0.435L231.378,21.383L231.378,21.383z"/>
			</g>
		</g>
	</g>
	<g>
		<g>
			<path fill="#D53541" d="M182.295,12.108c0.036,0,0.074,0,0.108,0c2.113,0.264,3.211,1.134,3.773,2.478
				c1.43,3.426-1.63,6.271-4.856,5.573C177.064,19.246,176.909,12.099,182.295,12.108z"/>
			<path fill="#D53541" d="M22.606,13.346c12.551-0.352,21.829-0.348,26.219,7.229c3.874,6.692,1.465,15.436-3.127,19.197
				c-5.027,4.114-13.986,3.727-23.206,3.613c-0.246-9.707-0.031-19.853-0.105-29.732C22.387,13.484,22.466,13.39,22.606,13.346z
				 M30.912,20.369c0.074,5.403-0.145,11.071,0.109,16.307c4.399-0.023,8.153-0.465,9.921-3.401
				c1.965-3.255,1.35-9.177-1.287-11.359c-2.048-1.687-4.789-1.894-8.634-1.861C30.894,20.074,30.906,20.221,30.912,20.369z"/>
			<path fill="#D53541" d="M102.229,43.386c-2.549,0-5.103,0-7.654,0c-0.014-4.434-0.014-8.418,0-11.976
				c0-1.366-0.479-2.68-1.298-3.305c-1.494-1.139-3.914-0.664-5.073,0.308c-0.963,0.815-1.482,2.163-1.743,3.768
				c0.037,5.808,0.037,6.469,0.021,11.204c-2.516,0-5.035,0-7.548,0c0-6.922,0-13.834,0-20.748c2.334,0,4.676,0,7.012,0
				c0,1.348,0,2.683,0,4.026c1.508-2.054,3.425-4.32,6.898-4.646c3.801-0.358,6.822,0.813,8.203,2.89
				c1.403,2.111,1.184,5.375,1.184,8.668C102.229,36.816,102.229,40.26,102.229,43.386z"/>
			<path fill="#D53541" d="M123.81,25.941c0-1.103,0-2.201,0-3.303c2.34,0,4.678,0,7.011,0c0,6.913,0,13.827,0,20.748
				c-2.334,0-4.671,0-7.011,0c0-1.066,0-2.134,0-3.204c-1.56,2.255-4.683,4.309-9.062,3.928c-5.946-0.535-8.539-6.479-8.199-12.285
				c0.284-4.904,3.307-9.317,8.522-9.807C119.782,21.578,122.014,23.408,123.81,25.941z M116.154,28.414
				c-1.743,1.068-3.026,4.641-1.508,7.436c1.405,2.603,5.313,3.139,7.656,1.446c3.208-2.327,1.835-7.84-0.647-9.083
				c-0.716-0.361-2.178-0.53-3.233-0.411C117.41,27.913,116.753,28.055,116.154,28.414z"/>
			<path fill="#D53541" d="M158.123,25.834c1.892-4.221,10.616-5.415,13.594-1.027c1.528,2.233,1.253,5.942,1.136,10.076
				c-0.025,2.974-0.025,4.236-0.053,8.503c-3.575,0.025-5.219,0.025-7.525,0.025c0-5.065,0.095-9.073-0.027-12.929
				c-0.025-0.765-0.257-1.754-0.648-2.27c-0.897-1.175-3.298-1.25-4.638-0.312c-1.604,1.122-1.62,4.262-1.62,7.019
				c0,2.966,0,5.74,0,8.467c-2.448,0-4.892,0-7.342,0c0-2.297,0-5.105,0-7.844c0-2.769,0.182-5.85-0.642-7.127
				c-0.912-1.411-3.63-1.547-4.962-0.308c-0.941,0.876-1.333,2.372-1.462,4.146c-0.007,3.487-0.073,6.52-0.007,11.159
				c-2.454,0-4.785,0-7.271-0.026c0-6.92,0-13.833,0-20.747c2.479,0,4.965,0,7.444,0c0,1.133,0,2.27,0,3.405
				c1.233-1.482,3.04-3.721,6.041-4.024C154.145,21.611,157.054,22.958,158.123,25.834z"/>
			<path fill="#D53541" d="M207.546,23.26c0,1.957,0,3.917,0,5.88c-0.716,0.11-1.183-0.7-1.945-1.034
				c-4.965-2.17-8.835,2.861-6.901,7.331c0.695,1.623,2.524,2.759,4.522,2.786c2.006,0.026,3.08-0.937,4.322-1.649
				c0,2.063,0,4.127,0,6.195c-1.657,0.657-2.647,1.2-4.322,1.342c-7.664,0.636-12.505-4.22-12.514-11.045
				c-0.013-5.879,3.754-10.557,9.82-11.047C203.455,21.783,205.702,22.258,207.546,23.26z"/>
			<path fill="#D53541" d="M228.692,23.875c-0.443,1.71-1.065,3.254-1.515,4.956c-1.654-0.742-3.929-2.342-7.017-1.964
				c-0.917,0.114-1.788,0.532-1.828,1.345c-0.095,1.801,2.934,1.984,4.317,2.378c2.937,0.821,6.229,2.227,6.685,5.163
				c1.546,9.771-13.303,9.943-19.097,5.881c0.465-1.826,0.992-3.597,1.513-5.371c0.524-0.104,1.123,0.742,1.831,1.134
				c1.632,0.923,4.229,1.831,6.694,1.547c1.109-0.125,2.146-0.616,2.152-1.646c0.014-1.935-3.427-2.246-4.961-2.684
				c-2.988-0.849-5.782-2.004-6.148-5.162C210.349,21.171,222.535,20.595,228.692,23.875z"/>
			<path fill="#D53541" d="M60.258,22.638c1.311,3.596,2.989,6.988,3.997,10.527c1.02-3.532,2.782-7.272,4.101-10.527
				c1.896-0.021,5.492,0.011,8.085,0c-4.292,9.729-9.011,19.91-13.59,29.934c-2.392-0.007-5.673,0.005-8.416,0
				c2.02-4.47,4.035-8.252,6.041-12.389c-2.944-5.94-5.964-11.755-8.637-17.544C54.269,22.625,57.495,22.648,60.258,22.638z"/>
			<path fill="#D53541" d="M178.625,22.638c2.515,0,4.939-0.003,7.458-0.003c0,6.592,0,13.249-0.012,20.751
				c-2.518,0-5.033,0-7.553,0c0-6.813,0-13.625,0-20.439C178.508,22.799,178.499,22.657,178.625,22.638z"/>
			<g>
				<g>
					<path fill="#D53541" d="M231.941,24.217c-1.482,0-2.689-1.162-2.689-2.591c0-1.425,1.207-2.584,2.689-2.584
						s2.689,1.16,2.689,2.584C234.631,23.055,233.424,24.217,231.941,24.217z M231.941,19.617c-1.167,0-2.113,0.902-2.113,2.01
						c0,1.111,0.948,2.017,2.113,2.017c1.166,0,2.115-0.905,2.115-2.017C234.057,20.518,233.107,19.617,231.941,19.617z"/>
					<path fill="#D53541" stroke="#C12310" stroke-width="0.5753" stroke-miterlimit="3.8637" d="M231.941,21.626"/>
				</g>
				<path fill="#D53541" d="M230.773,22.931V20.25h1.188c0.301,0,0.518,0.025,0.654,0.071c0.141,0.049,0.248,0.14,0.328,0.259
					c0.078,0.122,0.121,0.263,0.121,0.424c0,0.198-0.061,0.361-0.185,0.496c-0.12,0.127-0.304,0.215-0.554,0.249
					c0.123,0.068,0.222,0.142,0.303,0.229c0.077,0.078,0.189,0.225,0.32,0.432l0.344,0.522h-0.676l-0.404-0.586
					c-0.147-0.207-0.25-0.339-0.304-0.391c-0.054-0.055-0.109-0.091-0.167-0.112c-0.058-0.019-0.155-0.033-0.285-0.033h-0.115v1.122
					L230.773,22.931L230.773,22.931z M231.341,21.382h0.415c0.275,0,0.444-0.011,0.514-0.03c0.063-0.022,0.113-0.057,0.158-0.109
					c0.036-0.054,0.055-0.124,0.055-0.203c0-0.094-0.021-0.169-0.074-0.223c-0.056-0.051-0.119-0.085-0.21-0.106
					c-0.05-0.002-0.19-0.009-0.416-0.009h-0.44L231.341,21.382L231.341,21.382z"/>
			</g>
		</g>
	</g>
</g>
</svg>
